<svg xmlns="http://www.w3.org/2000/svg" width="18" height="18" viewBox="0 0 18 18"><g><g><path fill="#fff" d="M13.196 7.822a5.377 5.377 0 0 1-5.37 5.368 5.377 5.377 0 0 1-5.371-5.368 5.374 5.374 0 0 1 5.37-5.364 5.374 5.374 0 0 1 5.37 5.364zM.5 7.822c0 4.037 3.286 7.322 7.324 7.322l.314-.006.312-.02a7.285 7.285 0 0 0 3.694-1.386l.118-.091 3.572 3.57.097.086a.967.967 0 0 0 1.29-.092l.08-.09.066-.098a.982.982 0 0 0-.152-1.187l-3.571-3.57.091-.118.177-.252a7.285 7.285 0 0 0 1.235-4.068C15.147 3.783 11.862.5 7.824.5 3.784.5.5 3.784.5 7.822z"/></g></g></svg>